<svg width="79" height="80" viewBox="0 0 79 80" fill="none" xmlns="http://www.w3.org/2000/svg">
<path d="M0.954688 78.7889C1.21589 79.0504 1.52608 79.2578 1.86751 79.3994C2.20894 79.5409 2.57493 79.6138 2.94453 79.6138C3.31414 79.6138 3.68012 79.5409 4.02155 79.3994C4.36298 79.2578 4.67317 79.0504 4.93438 78.7889L39.5 44.2233L74.0797 78.7889C74.6074 79.3166 75.3232 79.6131 76.0695 79.6131C76.8159 79.6131 77.5316 79.3166 78.0594 78.7889C78.5871 78.2612 78.8836 77.5454 78.8836 76.799C78.8836 76.0527 78.5871 75.3369 78.0594 74.8092L43.4797 40.2436L78.0453 5.66389C78.5731 5.13615 78.8695 4.42039 78.8695 3.67405C78.8695 2.92771 78.5731 2.21194 78.0453 1.68421C77.5176 1.15647 76.8018 0.859985 76.0555 0.859985C75.3091 0.859985 74.5934 1.15647 74.0656 1.68421L39.5 36.2639L4.92031 1.69827C4.38228 1.23751 3.69019 0.996739 2.98235 1.02408C2.27451 1.05142 1.60306 1.34486 1.10217 1.84575C0.601275 2.34664 0.30784 3.01809 0.2805 3.72593C0.253159 4.43377 0.493926 5.12586 0.954688 5.66389L35.5203 40.2436L0.954688 74.8233C0.430857 75.3502 0.136833 76.0631 0.136833 76.8061C0.136833 77.5491 0.430857 78.2619 0.954688 78.7889Z" fill="black"/>
</svg>
