<svg width="100" height="51" viewBox="0 0 100 51" fill="none" xmlns="http://www.w3.org/2000/svg">
<path d="M100.077 24.2405C99.8505 23.998 94.4447 18.2344 85.6643 12.4026C75.3289 5.53804 63.046 0.523438 50.5866 0.523438C38.1254 0.523438 25.8424 5.53939 15.5088 12.4026C6.72823 18.2344 1.32244 23.998 1.09664 24.2405C0.768191 24.5932 0.586578 25.05 0.586578 25.5234C0.586578 25.9968 0.768191 26.4536 1.09664 26.8063C1.32244 27.0488 6.72823 32.8122 15.5088 38.6441C23.5288 43.9709 35.9456 50.2985 49.861 50.5133C50.3704 50.5268 50.8024 50.5268 51.3122 50.5133C65.2276 50.2985 77.6443 43.9709 85.6643 38.6441C94.4447 32.8124 99.8507 27.0488 100.077 26.8063C100.405 26.4536 100.587 25.9968 100.587 25.5234C100.587 25.05 100.405 24.5932 100.077 24.2405ZM72.5865 25.5234C72.5865 37.1793 62.7248 46.6772 50.5866 46.6772C38.4664 46.6772 28.5866 37.1966 28.5866 25.5234C28.5866 13.8675 38.4482 4.36958 50.5866 4.36958C62.707 4.36958 72.5865 13.8501 72.5865 25.5234ZM5.35464 25.5226C7.39923 23.5401 11.7924 19.5455 17.7822 15.5673C21.5822 13.0434 26.4194 10.2811 31.9292 8.13112C22.1316 17.8457 22.1448 33.2136 31.9284 42.9151C26.452 40.778 21.6436 38.038 17.8636 35.5336C11.8474 31.5476 7.41283 27.5168 5.35464 25.5226ZM83.3909 35.4795C79.5909 38.0032 74.7539 40.7653 69.2444 42.9155C79.0415 33.2009 79.0283 17.8332 69.245 8.13169C74.7213 10.2686 79.5297 13.0086 83.3095 15.513C89.3255 19.4992 93.7603 23.5297 95.8185 25.524C93.7741 27.5068 89.3807 31.5013 83.3909 35.4795Z" fill="black"/>
<path d="M40.5866 25.5234C40.5866 30.8254 45.0726 35.1388 50.5866 35.1388C56.1006 35.1388 60.5866 30.8254 60.5866 25.5234C60.5866 20.2215 56.1006 15.9081 50.5866 15.9081C45.0726 15.9081 40.5866 20.2215 40.5866 25.5234ZM56.5866 25.5234C56.5866 28.7046 53.895 31.2927 50.5866 31.2927C47.2782 31.2927 44.5866 28.7046 44.5866 25.5234C44.5866 22.3423 47.2782 19.7542 50.5866 19.7542C53.895 19.7542 56.5866 22.3423 56.5866 25.5234Z" fill="black"/>
</svg>
