<svg width="106" height="76" viewBox="0 0 106 76" fill="none" xmlns="http://www.w3.org/2000/svg">
<path d="M92.5481 46.324C92.6571 46.4686 92.773 46.6085 92.8959 46.7436C93.4009 47.3025 94.0029 47.7427 94.6669 48.0386C95.3309 48.3346 96.0438 48.4804 96.7641 48.4676L103.424 48.3671C103.876 48.3559 104.31 48.1473 104.63 47.7865C104.949 47.4258 105.13 46.9422 105.132 46.441C105.134 45.9398 104.958 45.4615 104.641 45.1104C104.324 44.7592 103.892 44.5635 103.44 44.5658L96.7795 44.6654C96.2359 44.6716 95.7161 44.4391 95.3335 44.0189C94.951 43.5986 94.7368 43.0246 94.7377 42.4222L94.888 6.71566C94.8924 6.11327 95.1116 5.53292 95.4979 5.10128C95.8841 4.66963 96.4059 4.42176 96.9495 4.41175L103.608 4.31134C103.837 4.31547 104.066 4.26853 104.28 4.17331C104.495 4.07809 104.69 3.9365 104.856 3.75694C105.021 3.5774 105.153 3.36352 105.244 3.128C105.334 2.89248 105.381 2.64009 105.382 2.38579C105.384 2.13148 105.339 1.88044 105.25 1.64751C105.162 1.41458 105.032 1.20452 104.868 1.02975C104.705 0.854983 104.51 0.719068 104.297 0.630057C104.083 0.541046 103.855 0.500746 103.626 0.511543L96.965 0.611106C95.5703 0.634313 94.2261 1.24501 93.2057 2.31913C92.1853 3.39326 91.5651 4.85023 91.4712 6.39404C89.6226 5.99788 86.8428 5.31747 85.2476 4.9265C83.9064 4.59782 82.847 4.33859 82.4079 4.24959C73.9784 2.49209 65.0672 1.16018 56.7355 5.54415C53.6353 4.38463 50.2658 3.98969 48.1372 3.85774C43.3946 3.5656 38.499 4.1151 35.0409 5.3278C32.631 6.17374 22.3819 6.56921 14.8417 6.85844C14.721 5.36033 14.1037 3.97473 13.1086 2.96832C12.1135 1.96192 10.8109 1.40586 9.45152 1.40716L2.78678 1.44932C2.55776 1.44383 2.32925 1.48929 2.11472 1.58301C1.9002 1.67674 1.70402 1.81682 1.53777 1.995C1.37152 2.17318 1.23858 2.38583 1.1468 2.62039C1.05502 2.85495 1.00626 3.10666 1.0034 3.36066C1.00054 3.61466 1.04364 3.86578 1.13015 4.09921C1.21667 4.33263 1.34484 4.54363 1.5071 4.71971C1.66936 4.8958 1.86242 5.03341 2.07487 5.12442C2.28731 5.21543 2.51484 5.25799 2.744 5.24959L9.40034 5.20788C9.94493 5.20732 10.4637 5.44523 10.8439 5.86981C11.224 6.29438 11.4346 6.87125 11.4299 7.47485L11.0074 43.1826C10.9986 43.7843 10.7754 44.3621 10.3867 44.7899C9.99793 45.2177 9.4751 45.4609 8.93218 45.4664L2.26946 45.5082C2.04316 45.5077 1.81819 45.5569 1.60752 45.6529C1.39685 45.7488 1.20465 45.8897 1.04199 46.0674C0.879332 46.2451 0.749442 46.4561 0.659798 46.6882C0.570158 46.9203 0.522538 47.169 0.519692 47.4198C0.516841 47.6706 0.558816 47.9187 0.643194 48.1498C0.727579 48.3808 0.852696 48.5902 1.01133 48.7659C1.16997 48.9416 1.359 49.0801 1.56752 49.1734C1.77604 49.2668 1.99992 49.3132 2.22627 49.3098L8.88672 49.268C10.2969 49.2578 11.6592 48.6463 12.6911 47.5603C13.723 46.4743 14.3451 44.9973 14.4285 43.4358C14.6862 43.4828 14.9482 43.5321 15.2144 43.5837C17.0471 43.9353 19.0747 44.3218 21.3059 44.0614C21.6202 45.1408 22.1559 46.1209 22.8716 46.9257C23.5873 47.7305 24.4636 48.3385 25.4327 48.7024C25.7465 48.8218 26.068 48.9157 26.3949 48.9833C25.83 50.8412 25.9424 52.8574 26.7079 54.5975C27.4734 56.3376 28.8308 57.6622 30.4874 58.2859C30.9213 58.4512 31.3699 58.567 31.8265 58.6316C31.3684 60.3726 31.4976 62.2276 32.1899 63.8471C32.841 65.3671 33.9418 66.5881 35.3127 67.3111C36.6835 68.0341 38.2435 68.2163 39.7381 67.828C39.6133 69.1477 39.8066 70.474 40.2981 71.6713C40.7897 72.8686 41.5619 73.8938 42.5357 74.6421C43.5096 75.3903 44.6501 75.8347 45.8405 75.9298C47.0309 76.0248 48.2285 75.7671 49.3107 75.1831L51.6287 73.9321C52.5274 74.9255 53.6855 75.5823 54.9454 75.8131C56.2053 76.044 57.5059 75.8378 58.6702 75.2225C59.7063 74.6763 60.5909 73.8255 61.2256 72.7642C61.9708 73.5439 62.883 74.1018 63.8798 74.3876C64.8765 74.6734 65.9263 74.678 66.9343 74.4011C67.9423 74.1242 68.8767 73.5744 69.653 72.8015C70.4293 72.0286 71.0231 71.057 71.3806 69.9744C71.3997 69.916 71.4166 69.8572 71.4345 69.7984C72.2189 70.1329 73.0597 70.2848 73.9052 70.2449C74.7507 70.2049 75.583 69.9739 76.3511 69.566C77.1191 69.1582 77.8067 68.5821 78.3715 67.8731C78.9362 67.1642 79.3663 66.3373 79.6353 65.4434C80.7916 65.9336 82.0604 66.025 83.2775 65.7058C84.4945 65.3866 85.6036 64.6714 86.4612 63.6529C87.3188 62.6344 87.8853 61.3595 88.0874 59.9934C88.2895 58.6273 88.1178 57.2328 87.5947 55.9906L86.7542 53.9901C87.553 52.8029 88.2782 51.5577 88.9247 50.2634C89.9684 48.2783 90.9552 46.4033 92.1653 45.7375C92.2821 45.9415 92.41 46.1373 92.5481 46.324ZM15.8595 39.8378C15.4005 39.7484 14.9407 39.6641 14.48 39.5849L14.8219 10.6594C25.5535 10.2482 33.3544 9.88344 36.0195 8.94901C41.4242 7.0541 50.5568 7.01365 56.1228 9.35028C56.1508 9.36354 56.1792 9.37616 56.2075 9.38793C57.0959 9.75185 57.939 10.2353 58.718 10.8277L69.944 19.6641L74.267 28.0458C74.4435 28.3671 74.5493 28.7309 74.576 29.1083C74.6027 29.4858 74.5497 29.8665 74.421 30.2205C74.3078 30.5808 74.1217 30.909 73.8772 31.1795C73.6326 31.45 73.3361 31.6556 73.0107 31.7803C70.7556 32.7087 68.542 31.7048 67.0993 29.1129L64.5418 24.4152C64.3692 24.098 64.1152 23.846 63.8114 23.6905L59.6496 21.5602C59.3233 21.3931 58.9558 21.3457 58.5997 21.4248C58.2436 21.5038 57.9172 21.7052 57.6671 22.0002C49.5864 31.5325 41.5201 31.6517 34.0069 30.3606C33.6604 30.3009 33.3038 30.3611 32.9854 30.5329L24.8613 34.9207C23.9095 35.4344 23.0752 36.1855 22.425 37.1139C21.7748 38.0423 21.3267 39.1224 21.1165 40.2679C19.3067 40.4981 17.5592 40.1642 15.8595 39.8378ZM57.2329 71.8C56.5586 72.1548 55.7898 72.2019 55.0945 71.931C54.3993 71.66 53.8341 71.0932 53.5224 70.3542L51.0124 64.4258C50.8587 64.0619 50.7724 63.6664 50.7586 63.2624C50.7447 62.8583 50.8036 62.4538 50.9318 62.0723C51.1004 61.555 51.3889 61.0938 51.7679 60.7359C52.1469 60.378 52.6029 60.1361 53.0895 60.0348C53.5761 59.9335 54.0758 59.9765 54.5379 60.1594C55 60.3422 55.4078 60.6584 55.7199 61.0758C55.8711 61.2766 55.9984 61.4984 56.0987 61.7359L58.4017 67.1756L58.6226 67.7017C58.9179 68.4408 58.9377 69.2842 58.6778 70.0505C58.4179 70.8169 57.8989 71.4452 57.2324 71.8005L57.2329 71.8ZM66.7122 70.4941C66.0387 70.8487 65.271 70.8966 64.5759 70.6276C63.8809 70.3586 63.3149 69.7943 63.0011 69.0575L61.753 66.0822C61.7415 66.0538 61.7311 66.0251 61.7192 65.9968L61.5064 65.4943L59.2294 60.0659C58.9452 59.387 58.8957 58.6121 59.0901 57.886C59.2846 57.1599 59.7098 56.5324 60.2862 56.1207C60.8626 55.7091 61.5507 55.5414 62.222 55.6491C62.8932 55.7569 63.5017 56.1326 63.9335 56.7061C64.0848 56.907 64.212 57.1289 64.312 57.3665L68.0827 66.3568C68.39 67.0973 68.4184 67.9479 68.1616 68.7229C67.9049 69.4979 67.3839 70.1346 66.7122 70.4941ZM68.7958 51.5717C69.1294 51.3946 69.4901 51.2916 69.8571 51.2683C70.2242 51.245 70.5905 51.3021 70.9351 51.4361C71.2797 51.5702 71.5958 51.7787 71.8654 52.0497C72.135 52.3207 72.3529 52.6489 72.5065 53.0155L76.2802 62.0005C76.4342 62.3672 76.5209 62.7652 76.5354 63.1717C76.55 63.5783 76.492 63.9856 76.3649 64.3702C76.2378 64.7548 76.0441 65.1093 75.7947 65.4135C75.5453 65.7176 75.2452 65.9654 74.9115 66.1427C74.5778 66.32 74.2171 66.4234 73.8499 66.4469C73.4827 66.4704 73.1162 66.4136 72.7714 66.2797C72.4266 66.1458 72.1102 65.9375 71.8402 65.6666C71.5703 65.3958 71.3521 65.0676 71.1982 64.701L67.427 55.7112L67.4258 55.7095C67.1213 54.9687 67.0943 54.1196 67.3506 53.3456C67.6068 52.5716 68.1258 51.9348 68.7954 51.573L68.7958 51.5717ZM83.1097 61.788C82.4349 62.1436 81.6653 62.1912 80.9692 61.9206C80.2731 61.6499 79.7069 61.083 79.3943 60.3436L75.6235 51.3651C75.3402 50.6864 75.2911 49.9122 75.4855 49.1867C75.6799 48.4613 76.1045 47.8342 76.68 47.4222C77.2556 47.0103 77.9429 46.8417 78.6138 46.9479C79.2847 47.0541 79.8934 47.4277 80.3265 47.9993C80.4775 48.1999 80.6042 48.4217 80.7035 48.6592L83.1447 54.4689C83.1645 54.5225 83.1864 54.5752 83.2108 54.6267L84.4789 57.6442C84.7871 58.3855 84.816 59.2372 84.5595 60.0135C84.303 60.7897 83.7817 61.4277 83.1094 61.7883L83.1097 61.788ZM83.8189 47.0056C83.2991 45.7611 82.4509 44.7252 81.3845 44.0323C80.318 43.3393 79.0824 43.0212 77.8379 43.1192C76.5934 43.2173 75.3974 43.7269 74.4049 44.5821C73.4124 45.4372 72.6692 46.5985 72.2717 47.9152C72.2206 47.8939 72.1703 47.8712 72.1185 47.8512C71.3522 47.551 70.5372 47.4229 69.7203 47.474C68.9034 47.5252 68.1007 47.7546 67.3584 48.1492C66.6162 48.5438 65.9489 49.0957 65.3951 49.7732C64.8413 50.4507 64.4118 51.2404 64.1314 52.0969C64.1127 52.1533 64.0966 52.2105 64.0799 52.2679C63.3085 51.9408 62.483 51.7897 61.6521 51.8236C60.8212 51.8576 60.0019 52.0757 59.2426 52.4653C58.4833 52.8549 57.7995 53.4079 57.2317 54.0916C56.6638 54.7754 56.2234 55.576 55.9366 56.446C55.9153 56.5101 55.8968 56.5753 55.877 56.6399C54.7201 56.1489 53.4505 56.0567 52.2326 56.3754C51.0146 56.694 49.9044 57.4087 49.0455 58.4271C48.1866 59.4454 47.6186 60.7205 47.415 62.0873C47.2115 63.454 47.3817 64.8496 47.9037 66.0934L49.8522 70.6949L47.8559 71.7722C47.0592 72.2009 46.1472 72.2646 45.3203 71.9495C44.4934 71.6344 43.8192 70.9661 43.4456 70.0915C43.0869 69.2206 43.0494 68.2234 43.341 67.3094C43.6325 66.3954 44.2303 65.6358 45.0088 65.1902L45.4556 64.949C45.8591 64.7213 46.1687 64.3288 46.3178 63.8559C46.4668 63.383 46.4435 62.8675 46.2527 62.4203C46.0619 61.9732 45.719 61.6301 45.2977 61.4649C44.8764 61.2997 44.4104 61.3256 44 61.5371L43.5837 61.7618L43.5823 61.76C43.5573 61.7735 43.5334 61.7887 43.5087 61.8025L39.7038 63.8556C38.9102 64.2756 38.0047 64.3345 37.1841 64.0195C36.3635 63.7045 35.6942 63.041 35.3216 62.1733C34.9489 61.3055 34.9031 60.3035 35.194 59.3851C35.4849 58.4667 36.0891 57.7061 36.8753 57.2685L41.1602 54.9568C41.5641 54.7295 41.8741 54.3369 42.0235 53.8638C42.1729 53.3907 42.1496 52.8749 41.9588 52.4275C41.7679 51.98 41.4247 51.6368 41.0031 51.4717C40.5815 51.3066 40.1153 51.3328 39.7047 51.5448L35.4599 53.8345C35.4527 53.8384 35.4452 53.8411 35.438 53.845C35.4237 53.8526 35.4098 53.8615 35.3956 53.8692L34.191 54.5191C33.3961 54.9398 32.489 54.9982 31.6674 54.6816C30.8459 54.3651 30.1765 53.6991 29.8051 52.829C29.4336 51.9588 29.3903 50.9549 29.6845 50.0361C29.9788 49.1173 30.5867 48.358 31.3758 47.9236C31.3958 47.9127 31.4131 47.9006 31.4323 47.8894L36.1465 45.3459C36.3543 45.2386 36.5416 45.0868 36.6973 44.8995C36.853 44.7122 36.974 44.4931 37.0534 44.255C37.1327 44.0168 37.1687 43.7644 37.1593 43.5125C37.15 43.2605 37.0954 43.0141 36.9987 42.7876C36.9021 42.561 36.7654 42.3589 36.5965 42.193C36.4276 42.027 36.23 41.9007 36.0152 41.8212C35.8004 41.7417 35.5727 41.7107 35.3453 41.7301C35.118 41.7494 34.8956 41.8187 34.691 41.9338L29.1271 44.9312C28.3303 45.356 27.42 45.4176 26.5945 45.1026C25.7691 44.7876 25.0954 44.1215 24.7202 43.2494C24.3593 42.3724 24.3244 41.3677 24.6228 40.4492C24.9212 39.5308 25.5293 38.7713 26.3176 38.3325L33.9579 34.2076C41.6273 35.4513 50.5353 35.2254 59.2682 25.5817L61.8618 26.9093L64.1629 31.1362C66.4511 35.249 70.373 36.8981 74.1602 35.3395C74.9536 35.0124 75.6759 34.4979 76.2763 33.8322C76.8767 33.1666 77.3406 32.3658 77.6353 31.4863C77.9301 30.6069 78.0486 29.67 77.9825 28.7416C77.9164 27.8132 77.6673 26.9159 77.2527 26.1127L72.748 17.3785C72.6274 17.1449 72.4627 16.9436 72.265 16.7879L60.8323 7.78712C67.4586 5.37222 74.5006 6.48035 81.7228 7.98625C82.1092 8.06437 83.1937 8.33002 84.4489 8.63765C87.7048 9.43529 89.984 9.97659 91.4431 10.2628L91.3082 42.0274L90.8278 42.263L90.7881 42.2833C88.5713 43.4446 87.2475 45.9623 85.9682 48.3961C85.6809 48.9424 85.3899 49.4958 85.0895 50.0313L83.8189 47.0056Z" fill="black"/>
</svg>
