<svg width="50" height="101" viewBox="0 0 50 101" fill="none" xmlns="http://www.w3.org/2000/svg">
<path d="M48.9415 47.4994L6.12025 1.37436C4.71726 -0.135981 2.44579 -0.133442 1.04515 1.38218C-0.354404 2.8976 -0.350787 5.35247 1.05238 6.86399L41.3248 50.2437L1.05094 93.6232C-0.352053 95.1349 -0.35567 97.5882 1.0437 99.1039C1.37684 99.4655 1.77293 99.7524 2.20917 99.948C2.64541 100.144 3.11317 100.244 3.5855 100.244C4.05612 100.244 4.52224 100.144 4.95716 99.9503C5.39208 99.7561 5.78726 99.4711 6.12007 99.1117L48.9415 52.9878C49.6172 52.2617 49.9964 51.2734 49.9964 50.2437C49.9964 49.214 49.6162 48.2269 48.9415 47.4994Z" fill="black"/>
</svg>
