<svg width="101" height="76" viewBox="0 0 101 76" fill="none" xmlns="http://www.w3.org/2000/svg">
<path d="M92.0814 0.74353H8.74816C4.15207 0.74353 0.414764 4.48084 0.414764 9.07693V67.4103C0.414764 72.0062 4.15207 75.7435 8.74816 75.7435H92.0816C96.6775 75.7435 100.415 72.0062 100.415 67.4101V9.07693C100.415 4.48084 96.6775 0.74353 92.0814 0.74353ZM8.74816 4.91013H92.0816C92.3886 4.91013 92.6591 5.02205 92.9472 5.08533C85.7325 11.6883 61.8099 33.5734 53.4382 41.1162C52.7831 41.7062 51.7273 42.4101 50.415 42.4101C49.1027 42.4101 48.0468 41.7062 47.3896 41.1142C39.0187 33.5726 15.0946 11.6863 7.88117 5.08572C8.16984 5.02244 8.44094 4.91013 8.74816 4.91013ZM4.58137 67.4101V9.07693C4.58137 8.66873 4.70441 8.29841 4.81457 7.92537C10.3364 12.9793 27.0286 28.2496 37.8521 38.092C27.0638 47.359 10.3673 63.1886 4.80148 68.4961C4.70324 68.1418 4.58137 67.7953 4.58137 67.4101ZM92.0814 71.5769H8.74816C8.41535 71.5769 8.11945 71.4609 7.80871 71.3867C13.5601 65.9039 30.3628 49.9832 40.9614 40.9162C42.1726 42.0156 43.3855 43.1131 44.6001 44.2088C46.3173 45.7592 48.3273 46.5769 50.4148 46.5769C52.5023 46.5769 54.5122 45.759 56.2273 44.2107C57.4426 43.1144 58.6562 42.0162 59.8681 40.9162C70.4673 49.9822 87.2677 65.9017 93.0208 71.3867C92.7101 71.4609 92.4146 71.5769 92.0814 71.5769ZM96.2482 67.4101C96.2482 67.7951 96.1263 68.1418 96.0282 68.4961C90.4603 63.1859 73.7657 47.358 62.9777 38.0922C73.8015 28.2498 90.4911 12.9808 96.015 7.92498C96.1251 8.29802 96.2482 8.66853 96.2482 9.07673V67.4101Z" fill="black"/>
</svg>
