<svg width="91" height="91" viewBox="0 0 91 91" fill="none" xmlns="http://www.w3.org/2000/svg">
<path d="M59.6284 7.7873C59.6284 13.2975 58.7666 18.7078 57.0723 23.8347C56.2007 26.3908 56.8771 29.301 58.5763 30.9686L66.2155 41.0882C59.9509 52.8241 52.7242 60.0532 41.0764 66.2322L31.2205 58.8178C29.2968 56.8914 26.4866 56.2005 23.8499 57.0283C18.696 58.7299 13.2882 59.5942 7.77574 59.5942C3.79348 59.594 0.553711 62.8338 0.553711 66.8158L0.553711 83.3442C0.553711 87.326 3.79348 90.5657 7.77527 90.5657C53.42 90.5657 90.5537 53.4318 90.5537 7.7873C90.5537 3.80527 87.3139 0.565498 83.3319 0.565498H66.85C62.8682 0.565735 59.6284 3.8055 59.6284 7.7873ZM83.3321 5.56566C84.5577 5.56566 85.5538 6.56175 85.5538 7.7873C85.5538 50.6756 50.6636 85.5656 7.77551 85.5656C6.54996 85.5656 5.55387 84.5695 5.55387 83.3439L5.55387 66.8156C5.55387 65.59 6.54996 64.5939 7.77551 64.5939C13.8229 64.5939 19.7579 63.6443 25.3806 61.7864C26.2107 61.5276 27.07 61.7376 27.9442 62.5774L39.3257 71.1712C39.6995 71.4534 40.1451 71.625 40.6116 71.6664C41.0782 71.7079 41.547 71.6175 41.9647 71.4056C55.7514 64.3914 64.2744 55.8684 71.3886 41.9842C71.8304 41.1396 71.7379 40.1043 71.1592 39.3377L62.3385 27.6946C62.0483 27.4036 61.8451 27.0373 61.752 26.6369C61.6588 26.2366 61.6793 25.8182 61.8111 25.4289C63.6812 19.7674 64.6286 13.8323 64.6286 7.7873C64.6286 6.56175 65.6246 5.56566 66.8502 5.56566H83.3321Z" fill="black"/>
</svg>
