<svg width="101" height="100" viewBox="0 0 101 100" fill="none" xmlns="http://www.w3.org/2000/svg">
<path d="M96.9558 75.536L74.4141 52.9608C74.0402 52.6055 73.5441 52.4074 73.0283 52.4074C72.5125 52.4074 72.0164 52.6055 71.6425 52.9608L67.1722 57.4312L61.9083 52.1785L74.6153 39.4045C79.9238 39.1251 86.9981 39.1475 87.311 39.1028C88.6298 38.9016 91.1555 36.8676 99.705 25.3677C99.9425 25.0425 100.075 24.6526 100.085 24.2501V19.0757C100.084 18.7312 99.9929 18.393 99.8203 18.0949C99.6477 17.7967 99.3999 17.5492 99.1015 17.3769C98.8037 17.201 98.4641 17.1081 98.1181 17.1081C97.7721 17.1081 97.4325 17.201 97.1346 17.3769L88.0933 22.7413C87.3222 22.9872 83.9359 23.7807 81.0414 19.6568C77.9121 15.1865 79.3091 13.0407 81.2873 11.3532C84.241 9.24291 87.3078 7.29542 90.4738 5.51937C90.7596 5.3524 90.9992 5.11676 91.171 4.83379C91.3427 4.55083 91.4411 4.22948 91.4573 3.89887C91.4697 3.56874 91.3984 3.24083 91.2499 2.94573C91.1013 2.65064 90.8805 2.39798 90.6079 2.21132C90.3285 2.02133 83.5224 -2.52724 71.8325 1.99898C62.8024 5.48584 61.5395 10.0791 61.4278 10.5932L59.5055 24.1719L46.7204 36.9682L35.2986 25.513C35.7937 24.2679 36.0515 22.9412 36.0586 21.6014C36.0613 20.2099 35.7881 18.8317 35.2548 17.5465C34.7215 16.2612 33.9387 15.0944 32.9517 14.1136C32.8583 14.0155 32.7532 13.9292 32.6388 13.8565L13.2934 1.27255C12.9196 1.02517 12.4718 0.91452 12.0258 0.959323C11.5798 1.00413 11.163 1.20163 10.8459 1.51842L2.81046 9.55385C2.49367 9.87097 2.29617 10.2878 2.25137 10.7338C2.20656 11.1798 2.31721 11.6276 2.56459 12.0014L15.1821 31.3132C15.2582 31.4251 15.3442 31.5298 15.4392 31.6261C16.4177 32.6123 17.5828 33.3939 18.8664 33.9254C20.15 34.4569 21.5265 34.7276 22.9158 34.7219C24.2591 34.724 25.5905 34.4699 26.8385 33.9731L38.2602 45.4283L24.2681 59.4205L10.8571 61.3204H10.7118C10.1977 61.4433 5.6156 62.695 2.11756 71.7363C-2.35278 83.4262 2.11756 90.2211 2.34107 90.5117C2.52584 90.7816 2.77467 91.0015 3.06528 91.1517C3.35588 91.3019 3.6792 91.3776 4.00627 91.3722C4.33509 91.3605 4.65547 91.265 4.93709 91.0949C5.21871 90.9247 5.45224 90.6855 5.6156 90.3999C7.39311 87.2348 9.34055 84.1681 11.4494 81.2134C13.1369 79.2352 15.3162 77.8606 19.7642 80.9563C23.8993 83.8732 23.117 87.2818 22.8488 88.0083L17.4843 97.0495C17.3055 97.3454 17.2088 97.6835 17.2042 98.0292C17.1995 98.3748 17.2871 98.7155 17.4578 99.016C17.6286 99.3166 17.8764 99.5662 18.1757 99.7392C18.475 99.9121 18.815 100.002 19.1607 100H24.3351C24.74 99.9927 25.1318 99.8556 25.4527 99.6088C37.1874 90.9364 39.0537 88.433 39.2102 87.1701C39.2102 86.9019 39.2102 79.8276 39.4896 74.5302L53.4482 60.6386L58.7679 65.8801L54.2976 70.3504C53.9318 70.7189 53.7265 71.217 53.7265 71.7363C53.7265 72.2555 53.9318 72.7536 54.2976 73.1221L76.8728 95.6861C79.4083 98.218 82.845 99.6401 86.4281 99.6401C90.0113 99.6401 93.448 98.218 95.9835 95.6861L97.0005 94.6691C98.2582 93.4159 99.2561 91.9267 99.937 90.287C100.618 88.6472 100.968 86.8892 100.968 85.1137C100.968 83.3382 100.618 81.5802 99.937 79.9405C99.2561 78.3008 98.2582 76.8116 97.0005 75.5584L96.9558 75.536ZM62.7353 26.4853C63.0321 26.1804 63.2239 25.7889 63.283 25.3677L65.2611 11.4649C65.384 11.152 66.6916 8.2351 73.2406 5.69818C76.9408 4.08835 81.0258 3.57627 85.0088 4.22297C82.8345 5.48107 80.7405 6.8733 78.7392 8.39156C73.3636 12.996 75.2858 18.2822 77.8339 21.9143C81.8237 27.5805 87.3222 27.3011 89.658 26.3847C89.7474 26.3847 96.1735 22.5514 96.1735 22.5514V23.6689C92.5078 28.5863 88.0933 34.0513 86.5958 35.2583C84.0253 35.1242 76.8728 35.4706 73.6653 35.6494C73.1808 35.6725 72.7224 35.8758 72.3801 36.2194L59.1479 49.3846L55.7951 46.0318L68.558 33.2131C68.766 33.0386 68.9354 32.8226 69.0554 32.579C69.1753 32.3354 69.2433 32.0695 69.2549 31.7982C69.2664 31.5269 69.2214 31.2562 69.1226 31.0033C69.0238 30.7503 68.8734 30.5207 68.681 30.3291C68.4886 30.1375 68.2584 29.988 68.0051 29.8903C67.7517 29.7925 67.4808 29.7485 67.2096 29.7612C66.9383 29.7739 66.6727 29.8429 66.4296 29.9639C66.1865 30.0849 65.9712 30.2551 65.7975 30.4639L53.0012 43.249L49.492 39.7286L62.7353 26.4853ZM22.8823 30.8103C21.1822 30.8186 19.5446 30.17 18.3114 28.9998L6.69965 11.1967L12.4887 5.40761L30.2919 17.0528C31.476 18.3194 32.1235 19.9953 32.0985 21.729C32.0735 23.4627 31.3779 25.1193 30.1578 26.3511L27.5985 28.9104C26.9798 29.53 26.2445 30.0209 25.435 30.3547C24.6255 30.6885 23.7579 30.8585 22.8823 30.855V30.8103ZM36.2262 72.3062C35.8815 72.6432 35.6777 73.0986 35.6563 73.5803C35.4775 76.7989 35.131 83.9403 35.2763 86.5107C34.0693 88.0083 28.5708 92.4339 23.6758 96.0996H22.5582L26.425 89.5841C27.375 87.2371 27.6655 81.761 21.9547 77.76C18.3225 75.2119 13.014 73.2897 8.42073 78.6653C6.90371 80.6675 5.51154 82.7614 4.25214 84.9349C3.60448 80.9509 4.1206 76.8646 5.73853 73.1668C8.28662 66.5618 11.2147 65.3437 11.5053 65.176L25.4639 63.1979C25.8866 63.1435 26.2795 62.951 26.5815 62.6503L41.0207 48.1887L44.5411 51.698L30.426 65.8242C30.2425 66.0042 30.0967 66.219 29.9972 66.456C29.8977 66.693 29.8465 66.9474 29.8465 67.2044C29.8465 67.4615 29.8977 67.7159 29.9972 67.9529C30.0967 68.1899 30.2425 68.4047 30.426 68.5847C30.606 68.7682 30.8207 68.9139 31.0577 69.0134C31.2947 69.1129 31.5492 69.1642 31.8062 69.1642C32.0632 69.1642 32.3177 69.1129 32.5547 69.0134C32.7916 68.9139 33.0064 68.7682 33.1864 68.5847L47.3015 54.4696L50.6543 57.8223L36.2262 72.3062ZM30.1689 31.805L30.3701 31.6261L32.9182 29.0781L33.097 28.8769L64.3894 60.1693L61.4613 63.0973L30.1689 31.805ZM94.1954 91.931L93.1784 92.9592C91.3731 94.7554 88.9301 95.7638 86.3834 95.7638C83.8368 95.7638 81.3938 94.7554 79.5885 92.9592L58.4103 71.7251L62.8806 67.2547L68.5803 61.5662L73.0507 57.0959L94.2848 78.33C95.1754 79.227 95.8799 80.2913 96.3577 81.4616C96.8355 82.6319 97.0772 83.8851 97.0689 85.1491C97.0606 86.4131 96.8024 87.6631 96.3093 88.827C95.8161 89.9909 95.0977 91.0458 94.1954 91.931Z" fill="black"/>
<path d="M71.8213 67.7688C71.6413 67.5853 71.4265 67.4396 71.1895 67.3401C70.9525 67.2406 70.6981 67.1893 70.4411 67.1893C70.184 67.1893 69.9296 67.2406 69.6926 67.3401C69.4556 67.4396 69.2408 67.5853 69.0608 67.7688C68.6957 68.1354 68.4907 68.6317 68.4907 69.1491C68.4907 69.6664 68.6957 70.1627 69.0608 70.5293L85.8246 87.293C86.0066 87.475 86.2226 87.6194 86.4604 87.7179C86.6982 87.8164 86.953 87.8671 87.2104 87.8671C87.4678 87.8671 87.7226 87.8164 87.9604 87.7179C88.1982 87.6194 88.4142 87.475 88.5962 87.293C88.7782 87.111 88.9226 86.895 89.0211 86.6572C89.1195 86.4194 89.1702 86.1646 89.1702 85.9072C89.1702 85.6499 89.1195 85.395 89.0211 85.1572C88.9226 84.9195 88.7782 84.7034 88.5962 84.5214L71.8213 67.7688Z" fill="black"/>
</svg>
