<svg width="91" height="91" viewBox="0 0 91 91" fill="none" xmlns="http://www.w3.org/2000/svg">
<path d="M89.4548 83.9478L63.861 58.354C68.8186 52.2303 71.8035 44.449 71.8035 35.9741C71.8035 16.3316 55.821 0.348999 36.1785 0.348999C16.536 0.348999 0.553589 16.3314 0.553589 35.9739C0.553589 55.6164 16.5361 71.5989 36.1786 71.5989C44.6536 71.5989 52.4349 68.614 58.5586 63.6564L84.1524 89.2502C84.8836 89.9814 85.8435 90.349 86.8036 90.349C87.7638 90.349 88.7237 89.9814 89.455 89.2502C90.9212 87.784 90.9212 85.4139 89.4548 83.9478ZM36.1786 64.0989C20.6686 64.0989 8.05365 51.4839 8.05365 35.9739C8.05365 20.4638 20.6686 7.84888 36.1786 7.84888C51.6887 7.84888 64.3036 20.4638 64.3036 35.9739C64.3036 51.4839 51.6885 64.0989 36.1786 64.0989Z" fill="black"/>
</svg>
