<svg width="104" height="54" viewBox="0 0 104 54" fill="none" xmlns="http://www.w3.org/2000/svg">
<path d="M55.1003 51.1886L101.225 8.36735C102.736 6.96436 102.733 4.69289 101.217 3.29225C99.7021 1.8927 97.2472 1.89631 95.7357 3.29948L52.356 43.5719L8.97643 3.29804C7.46472 1.89505 5.0114 1.89143 3.49579 3.2908C3.13411 3.62394 2.84722 4.02004 2.65163 4.45627C2.45603 4.89251 2.3556 5.36027 2.35614 5.8326C2.3555 6.30322 2.45515 6.76934 2.64937 7.20426C2.84358 7.63918 3.12856 8.03436 3.48797 8.36717L49.6118 51.1886C50.338 51.8643 51.3263 52.2435 52.356 52.2435C53.3856 52.2435 54.3727 51.8633 55.1003 51.1886Z" fill="black" stroke="black" stroke-width="3"/>
</svg>
