<svg width="91" height="81" viewBox="0 0 91 81" fill="none" xmlns="http://www.w3.org/2000/svg">
<path d="M24.0639 60.1632C21.917 60.1632 19.8182 60.7496 18.0332 61.8484C16.2481 62.9473 14.8567 64.509 14.0352 66.3363C13.2136 68.1635 12.9986 70.1742 13.4174 72.1139C13.8363 74.0537 14.8701 75.8356 16.3882 77.2341C17.9063 78.6326 19.8405 79.585 21.9462 79.9708C24.0518 80.3567 26.2344 80.1586 28.2179 79.4018C30.2014 78.6449 31.8967 77.3632 33.0895 75.7187C34.2822 74.0742 34.9189 72.1409 34.9189 70.1631C34.9189 67.5109 33.7752 64.9674 31.7395 63.0921C29.7038 61.2167 26.9428 60.1632 24.0639 60.1632ZM24.0639 74.4487C23.1438 74.4487 22.2443 74.1974 21.4793 73.7265C20.7142 73.2556 20.118 72.5862 19.7658 71.8031C19.4137 71.02 19.3216 70.1583 19.5011 69.327C19.6806 68.4956 20.1237 67.732 20.7743 67.1326C21.4249 66.5333 22.2539 66.1251 23.1563 65.9597C24.0587 65.7944 24.9941 65.8792 25.8442 66.2036C26.6942 66.528 27.4208 67.0773 27.932 67.7821C28.4432 68.4868 28.716 69.3154 28.716 70.1631C28.716 71.2997 28.2259 72.3898 27.3534 73.1935C26.481 73.9972 25.2977 74.4487 24.0639 74.4487ZM58.1796 60.1632C56.0327 60.1632 53.934 60.7496 52.1489 61.8484C50.3638 62.9473 48.9725 64.509 48.1509 66.3363C47.3293 68.1635 47.1143 70.1742 47.5332 72.1139C47.952 74.0537 48.9859 75.8356 50.504 77.2341C52.0221 78.6326 53.9562 79.585 56.0619 79.9708C58.1676 80.3567 60.3501 80.1586 62.3336 79.4018C64.3171 78.6449 66.0124 77.3632 67.2052 75.7187C68.398 74.0742 69.0346 72.1409 69.0346 70.1631C69.0346 67.5109 67.891 64.9674 65.8553 63.0921C63.8195 61.2167 61.0585 60.1632 58.1796 60.1632ZM58.1796 74.4487C57.2595 74.4487 56.3601 74.1974 55.595 73.7265C54.83 73.2556 54.2337 72.5862 53.8816 71.8031C53.5295 71.02 53.4373 70.1583 53.6168 69.327C53.7964 68.4956 54.2394 67.732 54.89 67.1326C55.5407 66.5333 56.3696 66.1251 57.272 65.9597C58.1744 65.7944 59.1098 65.8792 59.9599 66.2036C60.81 66.528 61.5365 67.0773 62.0477 67.7821C62.5589 68.4868 62.8318 69.3154 62.8318 70.1631C62.8318 71.2997 62.3416 72.3898 61.4692 73.1935C60.5967 73.9972 59.4134 74.4487 58.1796 74.4487ZM87.6432 0.163736H83.5803C81.3547 0.13623 79.1921 0.844638 77.485 2.16041C75.7779 3.47618 74.6394 5.31213 74.276 7.3351L74.152 8.73508H3.90457C3.42834 8.73949 2.9596 8.84487 2.53471 9.04306C2.10981 9.24125 1.74017 9.52692 1.45444 9.87793C1.16208 10.2041 0.952005 10.5861 0.839373 10.9962C0.72674 11.4063 0.714365 11.8343 0.80314 12.2493L8.83585 39.5634C9.37946 41.3988 10.5705 43.0155 12.2214 44.1587C13.8722 45.3019 15.889 45.9066 17.9541 45.8776H67.5769L66.9567 49.1918C66.8378 49.8679 66.4592 50.4821 65.89 50.9226C65.3207 51.3631 64.5986 51.6006 63.8552 51.5918H16.4654C15.6428 51.5918 14.854 51.8928 14.2723 52.4286C13.6907 52.9645 13.3639 53.6912 13.3639 54.4489C13.3639 55.2067 13.6907 55.9334 14.2723 56.4692C14.854 57.005 15.6428 57.306 16.4654 57.306H63.7932C66.0188 57.3335 68.1814 56.6251 69.8885 55.3094C71.5956 53.9936 72.7341 52.1577 73.0975 50.1347L80.5409 8.27794C80.6598 7.60188 81.0384 6.98765 81.6076 6.54714C82.1769 6.10663 82.899 5.86915 83.6423 5.87797H87.6432C88.4657 5.87797 89.2546 5.57695 89.8362 5.04114C90.4179 4.50532 90.7446 3.77861 90.7446 3.02085C90.7446 2.2631 90.4179 1.53638 89.8362 1.00057C89.2546 0.464752 88.4657 0.163736 87.6432 0.163736ZM17.9541 40.1633C17.2539 40.1854 16.5662 39.9885 16.003 39.6046C15.4398 39.2207 15.0344 38.6724 14.8526 38.0491L7.96744 14.4493H73.0975L68.4453 40.1633H17.9541Z" fill="black"/>
</svg>
