<svg width="110" height="110" viewBox="0 0 110 110" fill="none" xmlns="http://www.w3.org/2000/svg">
<path d="M108.338 27.3154L55.8381 1.06542C55.5779 0.935378 55.2909 0.867676 55 0.867676C54.7091 0.867676 54.4221 0.935378 54.1619 1.06542L1.66187 27.3154C1.35019 27.4712 1.08806 27.7107 0.904915 28.0071C0.721766 28.3035 0.624835 28.6451 0.624997 28.9935V81.4935C0.623087 81.8436 0.719194 82.1871 0.90244 82.4854C1.08569 82.7836 1.34876 83.0246 1.66187 83.1811L54.1619 109.431C54.4221 109.561 54.7091 109.629 55 109.629C55.2909 109.629 55.5779 109.561 55.8381 109.431L108.338 83.1811C108.651 83.0246 108.914 82.7836 109.098 82.4854C109.281 82.1871 109.377 81.8436 109.375 81.4935V28.9935C109.375 28.6451 109.278 28.3035 109.095 28.0071C108.912 27.7107 108.65 27.4712 108.338 27.3154ZM55 53.1473L40.3431 45.8179L87.1919 20.931L103.317 28.9935L55 53.1473ZM25.3431 38.3179L72.1919 13.431L83.0669 18.8686L36.2237 43.7592L25.3431 38.3179ZM23.125 41.4023L34.375 47.0273V61.9673L30.0756 57.6679C29.7241 57.3163 29.2472 57.1187 28.75 57.1185H23.125V41.4023ZM55 4.8398L68.0725 11.3686L21.2237 36.2592L6.6925 28.9935L55 4.8398ZM4.375 32.0273L19.375 39.5273V58.9935C19.375 59.4908 19.5725 59.9677 19.9242 60.3194C20.2758 60.671 20.7527 60.8685 21.25 60.8685H27.9737L34.9244 67.8192C35.1866 68.0813 35.5206 68.2598 35.8843 68.3321C36.248 68.4045 36.6249 68.3673 36.9675 68.2254C37.31 68.0836 37.6028 67.8433 37.8089 67.535C38.0149 67.2268 38.1249 66.8643 38.125 66.4935V48.9023L53.125 56.4023V104.71L4.375 80.3348V32.0273ZM56.875 104.71V56.4023L105.625 32.0273V80.3348L56.875 104.71Z" fill="black"/>
</svg>
