<svg width="94" height="106" viewBox="0 0 94 106" fill="none" xmlns="http://www.w3.org/2000/svg">
<path d="M0.335 20.9972V45.5222C0.33125 71.5285 16.6363 95.281 40.9175 104.618C44.8334 106.128 49.1704 106.128 53.0862 104.618L56.7238 103.216C79.1675 94.5835 93.6688 72.8785 93.665 47.9147V20.9972C93.6648 20.0288 93.2899 19.0979 92.6189 18.3996C91.9479 17.7013 91.0327 17.2897 90.065 17.251C76.5837 16.726 62.84 11.416 49.2125 1.4635C48.5698 0.995292 47.7952 0.743042 47 0.743042C46.2048 0.743042 45.4302 0.995292 44.7875 1.4635C31.1562 11.416 17.4125 16.726 3.93875 17.251C2.96975 17.2888 2.05308 17.7005 1.38115 18.3997C0.709212 19.0989 0.334262 20.0275 0.335 20.9972ZM7.835 24.5072C20.9 23.2697 34.0475 18.1022 47 9.09475C59.9487 18.1022 73.1 23.2697 86.165 24.5072V47.911C86.1688 69.7435 73.5575 88.7035 54.0312 96.211L50.3938 97.6135C48.2097 98.4562 45.7903 98.4562 43.6063 97.6135C22.2088 89.3822 7.83125 68.4498 7.83125 45.526V24.5035L7.835 24.5072Z" fill="black"/>
<path d="M39.32 68.731C40.0232 69.434 40.9769 69.8289 41.9713 69.8289C42.9656 69.8289 43.9193 69.434 44.6225 68.731L67.9475 45.4097C68.3057 45.0638 68.5913 44.65 68.7879 44.1925C68.9844 43.735 69.0879 43.2429 69.0922 42.745C69.0965 42.2471 69.0016 41.7533 68.8131 41.2924C68.6245 40.8315 68.3461 40.4128 67.994 40.0608C67.6419 39.7087 67.2232 39.4302 66.7623 39.2417C66.3015 39.0531 65.8077 38.9582 65.3097 38.9625C64.8118 38.9669 64.3197 39.0703 63.8622 39.2669C63.4047 39.4634 62.9909 39.7491 62.645 40.1072L41.9713 60.781L31.3588 50.161C31.0106 49.8126 30.5972 49.5361 30.1422 49.3475C29.6872 49.1588 29.1995 49.0616 28.707 49.0615C28.2144 49.0613 27.7266 49.1581 27.2715 49.3465C26.8164 49.5348 26.4028 49.8109 26.0544 50.1591C25.706 50.5073 25.4295 50.9207 25.2409 51.3757C25.0522 51.8306 24.955 52.3183 24.9549 52.8109C24.9547 53.3035 25.0515 53.7912 25.2399 54.2464C25.4282 54.7015 25.7043 55.1151 26.0525 55.4635L39.32 68.731Z" fill="black"/>
</svg>
