<svg width="98" height="101" viewBox="0 0 98 101" fill="none" xmlns="http://www.w3.org/2000/svg">
<path d="M94.687 68.2276C96.7363 65.6137 97.7192 62.8115 97.5937 59.9257C97.4682 56.7471 96.0462 54.2586 94.8752 52.732C96.2344 49.3443 96.7572 44.0118 92.2194 39.8713C88.8944 36.8391 83.2482 35.4798 75.4272 35.8562C69.9274 36.1072 65.3269 37.1319 65.1386 37.1737H65.1177C64.0721 37.3619 62.9638 37.5919 61.8346 37.8429C61.7509 36.5045 61.981 33.1795 64.4486 25.6931C67.3762 16.7847 67.2089 9.96749 63.9049 5.40873C60.4335 0.619942 54.8919 0.24353 53.2608 0.24353C51.6924 0.24353 50.2495 0.891795 49.2248 2.08376C46.9036 4.78138 47.1754 9.75838 47.4682 12.0587C44.7079 19.4614 36.9705 37.6128 30.4251 42.6526C30.2997 42.7362 30.1951 42.8408 30.0905 42.9453C28.1667 44.9738 26.8701 47.1695 25.9918 49.0934C24.758 48.4242 23.357 48.0478 21.8513 48.0478H9.09515C4.28544 48.0478 0.395859 51.9583 0.395859 56.7471V90.7287C0.395859 95.5384 4.30636 99.428 9.09515 99.428H21.8513C23.7125 99.428 25.4481 98.8424 26.8701 97.8387L31.7844 98.4242C32.5372 98.5288 45.9207 100.223 59.6598 99.9508C62.1483 100.139 64.4904 100.244 66.6652 100.244C70.4084 100.244 73.6706 99.9508 76.3892 99.3652C82.7882 98.006 87.1587 95.2874 89.3754 91.2933C91.0692 88.2402 91.0692 85.208 90.7974 83.2841C94.9588 79.52 95.6907 75.3585 95.5443 72.4309C95.4607 70.737 95.0843 69.2941 94.687 68.2276ZM9.09515 93.7818C7.4013 93.7818 6.04203 92.4016 6.04203 90.7287V56.7262C6.04203 55.0323 7.42221 53.6731 9.09515 53.6731H21.8513C23.5452 53.6731 24.9044 55.0532 24.9044 56.7262V90.7078C24.9044 92.4016 23.5243 93.7609 21.8513 93.7609H9.09515V93.7818ZM89.3335 65.781C88.4552 66.7011 88.2879 68.1022 88.9571 69.1896C88.9571 69.2105 89.8145 70.6743 89.9191 72.6818C90.0655 75.4213 88.748 77.847 85.9877 79.9173C85.0048 80.6701 84.6075 81.9667 85.0257 83.1377C85.0257 83.1586 85.9249 85.919 84.4611 88.533C83.06 91.0424 79.9442 92.8408 75.2181 93.8445C71.4331 94.6601 66.2888 94.8065 59.9734 94.3046H59.6807C46.2344 94.5974 32.6418 92.8408 32.4954 92.8199H32.4745L30.3624 92.5689C30.4879 91.9834 30.5506 91.356 30.5506 90.7287V56.7262C30.5506 55.827 30.4042 54.9487 30.1533 54.1331C30.5297 52.732 31.5753 49.6162 34.0429 46.9604C43.4322 39.5158 52.6125 14.4008 53.0098 13.3134C53.1771 12.8742 53.2189 12.3933 53.1353 11.9123C52.7798 9.57017 52.9053 6.70526 53.4071 5.84788C54.5155 5.86879 57.5059 6.18247 59.3043 8.67097C61.4373 11.6195 61.3536 16.8893 59.0533 23.8738C55.5401 34.5179 55.2474 40.1222 58.0286 42.5898C59.4088 43.8236 61.2491 43.8864 62.5874 43.4054C63.863 43.1126 65.0759 42.8617 66.2261 42.6735C66.3097 42.6526 66.4143 42.6317 66.4979 42.6107C72.9178 41.2097 84.4193 40.3523 88.4134 43.9909C91.8011 47.0859 89.3963 51.1846 89.1244 51.6237C88.3507 52.7948 88.5807 54.3213 89.6263 55.2624C89.6472 55.2833 91.8429 57.3535 91.9475 60.1348C92.0312 61.9959 91.1529 63.8989 89.3335 65.781Z" fill="black"/>
</svg>
