<svg width="101" height="100" viewBox="0 0 101 100" fill="none" xmlns="http://www.w3.org/2000/svg">
<path d="M50.7433 94C75.0438 94 94.7433 74.3005 94.7433 50C94.7433 25.6995 75.0438 6 50.7433 6C26.4427 6 6.74326 25.6995 6.74326 50C6.74326 74.3005 26.4427 94 50.7433 94Z" stroke="black" stroke-width="4" stroke-miterlimit="10" stroke-linecap="round"/>
<path d="M50.7433 56C54.057 56 56.7433 53.3137 56.7433 50C56.7433 46.6863 54.057 44 50.7433 44C47.4295 44 44.7433 46.6863 44.7433 50C44.7433 53.3137 47.4295 56 50.7433 56Z" fill="black"/>
<path d="M60.7433 68L50.7433 50L74.7433 24" stroke="black" stroke-width="4" stroke-miterlimit="10" stroke-linecap="round"/>
</svg>
