<svg width="101" height="51" viewBox="0 0 101 51" fill="none" xmlns="http://www.w3.org/2000/svg">
<path d="M53.1003 49.1886L99.2253 6.36735C100.736 4.96436 100.733 2.69289 99.2175 1.29225C97.7021 -0.107303 95.2472 -0.103686 93.7357 1.29948L50.356 41.5719L6.97643 1.29804C5.46472 -0.104953 3.0114 -0.108569 1.49579 1.2908C1.13411 1.62394 0.847219 2.02004 0.651626 2.45627C0.456033 2.89251 0.355605 3.36027 0.356137 3.8326C0.355502 4.30322 0.45515 4.76934 0.649367 5.20426C0.843583 5.63918 1.12856 6.03436 1.48797 6.36717L47.6118 49.1886C48.338 49.8643 49.3263 50.2435 50.356 50.2435C51.3856 50.2435 52.3727 49.8633 53.1003 49.1886Z" fill="black"/>
</svg>
