<svg width="76" height="95" viewBox="0 0 76 95" fill="none" xmlns="http://www.w3.org/2000/svg">
<path fill-rule="evenodd" clip-rule="evenodd" d="M39.875 0.36853C39.3777 0.36853 38.9008 0.566075 38.5492 0.917705C38.1975 1.26934 38 1.74625 38 2.24353V65.9935C38 71.1685 33.8 75.3685 28.625 75.3685C23.45 75.3685 19.25 71.1685 19.25 65.9935C19.25 60.8185 23.45 56.6185 28.625 56.6185C29.1223 56.6185 29.5992 56.421 29.9508 56.0694C30.3025 55.7177 30.5 55.2408 30.5 54.7435V39.7435C30.5 39.2462 30.3025 38.7693 29.9508 38.4177C29.5992 38.0661 29.1223 37.8685 28.625 37.8685C13.1 37.8685 0.5 50.4704 0.5 65.9935C0.5 81.5185 13.1 94.1185 28.625 94.1185C44.1481 94.1185 56.75 81.5185 56.75 65.9935V35.0448C60.8736 36.9112 65.3487 37.874 69.875 37.8685H73.625C74.1223 37.8685 74.5992 37.671 74.9508 37.3194C75.3025 36.9677 75.5 36.4908 75.5 35.9935V20.9935C75.5 20.4962 75.3025 20.0193 74.9508 19.6677C74.5992 19.3161 74.1223 19.1185 73.625 19.1185H69.875C62.6319 19.1185 56.75 13.2367 56.75 5.99353V2.24353C56.75 1.74625 56.5525 1.26934 56.2008 0.917705C55.8492 0.566075 55.3723 0.36853 54.875 0.36853H39.875ZM41.75 4.11853H53V5.99353C53 15.3067 60.5619 22.8685 69.875 22.8685H71.75V34.1185H69.875C64.7544 34.1185 59.9525 32.7498 55.8144 30.3517C55.5293 30.1866 55.2058 30.0996 54.8764 30.0994C54.547 30.0991 54.2233 30.1857 53.938 30.3503C53.6527 30.5149 53.4157 30.7518 53.2511 31.0371C53.0864 31.3224 52.9998 31.646 53 31.9754V65.9935C53 79.4467 42.0781 90.3685 28.625 90.3685C15.1719 90.3685 4.25 79.4467 4.25 65.9935C4.25 53.1723 14.1725 42.6498 26.75 41.6898V53.0017C20.3937 53.9129 15.5 59.386 15.5 65.9954C15.5 73.2367 21.3819 79.1204 28.625 79.1204C35.8681 79.1204 41.75 73.2367 41.75 65.9954V4.11853Z" fill="black"/>
</svg>
