<svg width="88" height="101" viewBox="0 0 88 101" fill="none" xmlns="http://www.w3.org/2000/svg">
<path d="M60.6945 66.3148C71.3357 49.617 69.998 51.7002 70.3047 51.2648C74.1789 45.8004 76.2266 39.3689 76.2266 32.6654C76.2266 14.8881 61.8006 0.24353 44 0.24353C26.2574 0.24353 11.7734 14.8592 11.7734 32.6654C11.7734 39.3646 13.8641 45.9644 17.8652 51.5025L27.3051 66.315C17.2123 67.866 0.0546875 72.4881 0.0546875 82.6654C0.0546875 86.3754 2.47617 91.6625 14.0121 95.7824C22.0672 98.6592 32.717 100.244 44 100.244C65.0986 100.244 87.9453 94.292 87.9453 82.6654C87.9453 72.4863 70.8078 67.8691 60.6945 66.3148ZM22.7596 48.2797C22.7274 48.2293 22.6937 48.18 22.6586 48.1316C19.3291 43.5511 17.6328 38.1226 17.6328 32.6654C17.6328 18.0135 29.4309 6.10291 44 6.10291C58.5389 6.10291 70.3672 18.0187 70.3672 32.6654C70.3672 38.1314 68.7029 43.3758 65.5535 47.8355C65.2713 48.2078 66.7438 45.9203 44 81.6086L22.7596 48.2797ZM44 94.3842C20.9543 94.3842 5.91406 87.6101 5.91406 82.6654C5.91406 79.342 13.6422 73.8773 30.7672 71.7472L41.5293 88.6346C41.7939 89.0499 42.1591 89.3919 42.5909 89.6288C43.0227 89.8657 43.5073 89.9899 43.9998 89.9899C44.4923 89.9899 44.9769 89.8657 45.4087 89.6288C45.8405 89.3919 46.2057 89.0499 46.4703 88.6346L57.2322 71.7472C74.3576 73.8773 82.0859 79.342 82.0859 82.6654C82.0859 87.5681 67.1811 94.3842 44 94.3842Z" fill="black"/>
<path d="M44 18.017C35.9229 18.017 29.3516 24.5883 29.3516 32.6654C29.3516 40.7426 35.9229 47.3138 44 47.3138C52.0771 47.3138 58.6484 40.7426 58.6484 32.6654C58.6484 24.5883 52.0771 18.017 44 18.017ZM44 41.4545C39.1537 41.4545 35.2109 37.5117 35.2109 32.6654C35.2109 27.8191 39.1537 23.8763 44 23.8763C48.8463 23.8763 52.7891 27.8191 52.7891 32.6654C52.7891 37.5117 48.8463 41.4545 44 41.4545Z" fill="black"/>
</svg>
