<svg width="97" height="101" viewBox="0 0 97 101" fill="none" xmlns="http://www.w3.org/2000/svg">
<path d="M19.6648 87.0301L12.9448 88.5261C9.38259 89.299 6.19405 91.2722 3.91303 94.1153C1.63202 96.9585 0.397009 100.499 0.414794 104.144V107.38C0.417872 109.572 1.13952 111.703 2.46921 113.446C3.79889 115.189 5.66328 116.448 7.77679 117.03C14.2668 118.8 26.5848 120.914 48.4148 120.914C70.2448 120.914 82.5628 118.8 89.0528 117.03C91.1663 116.448 93.0307 115.189 94.3604 113.446C95.6901 111.703 96.4117 109.572 96.4148 107.38V104.144C96.4326 100.499 95.1976 96.9585 92.9166 94.1153C90.6355 91.2722 87.447 89.299 83.8848 88.5261L77.1648 87.0301L67.9968 81.5321L64.3108 72.9321L65.5108 71.5501L66.4128 71.7921C67.3566 72.0417 68.3286 72.1687 69.3048 72.1701C72.2539 72.1637 75.08 70.9876 77.1629 68.8998C79.2458 66.812 80.4153 63.9832 80.4148 61.0341V58.6341C82.1277 58.1918 83.6458 57.1942 84.7314 55.7973C85.8171 54.4005 86.4091 52.6832 86.4148 50.9141V42.9141C86.4082 41.1456 85.8158 39.4292 84.7302 38.0332C83.6446 36.6372 82.1271 35.6402 80.4148 35.1981V32.9141C80.4148 24.4271 77.0434 16.2878 71.0422 10.2866C65.041 4.28548 56.9017 0.914063 48.4148 0.914062C39.9279 0.914063 31.7885 4.28548 25.7874 10.2866C19.7862 16.2878 16.4148 24.4271 16.4148 32.9141V35.1981C14.7025 35.6402 13.185 36.6372 12.0994 38.0332C11.0138 39.4292 10.4214 41.1456 10.4148 42.9141V50.9141C10.4148 53.0358 11.2576 55.0706 12.7579 56.5709C14.2582 58.0712 16.2931 58.9141 18.4148 58.9141H22.4148C23.0977 58.9074 23.7743 58.7829 24.4148 58.5461V59.2361C24.4136 62.0913 25.4499 64.8498 27.3308 66.9981L32.5308 72.9281L28.8428 81.5281L19.6648 87.0301ZM29.8468 85.5881C33.4643 90.3547 38.4176 93.9378 44.0768 95.8821C42.1482 97.7707 40.5459 99.9657 39.3348 102.378C33.0389 99.4391 27.5489 95.0183 23.3348 89.4941L29.8468 85.5881ZM92.4148 104.144V107.38C92.4156 108.697 91.9839 109.978 91.1861 111.026C90.3883 112.074 89.2685 112.83 87.9988 113.18C81.7448 114.878 69.8008 116.914 48.4148 116.914C27.0288 116.914 15.0848 114.878 8.83079 113.17C7.56271 112.821 6.44411 112.066 5.64648 111.02C4.84884 109.974 4.41617 108.695 4.41479 107.38V104.144C4.40109 101.41 5.32755 98.7543 7.03891 96.622C8.75027 94.4897 11.1425 93.0104 13.8148 92.4321L19.5628 91.1541C21.8168 94.1801 28.6508 102.486 38.3268 106.282C39.1547 106.6 40.0724 106.593 40.8949 106.261C41.7174 105.929 42.3835 105.298 42.7588 104.494C44.0708 101.718 46.0065 99.2827 48.4148 97.3781C50.8238 99.2822 52.7608 101.717 54.0748 104.492C54.3582 105.096 54.8075 105.607 55.3702 105.965C55.9329 106.323 56.5858 106.513 57.2528 106.514C57.6827 106.515 58.1089 106.434 58.5088 106.276C68.1828 102.476 75.0168 94.1741 77.2708 91.1481L83.0188 92.4261C85.6913 93.0054 88.0834 94.4859 89.7941 96.6194C91.5048 98.7528 92.4301 101.41 92.4148 104.144ZM57.4948 102.378C56.2847 99.9651 54.6822 97.7699 52.7528 95.8821C58.412 93.9378 63.3653 90.3547 66.9828 85.5881L73.4948 89.4941C69.2803 95.0179 63.7904 99.4387 57.4948 102.378ZM73.6348 66.6841C72.184 67.7887 70.3626 68.2903 68.5508 68.0841L69.4988 67.0001C71.3795 64.8509 72.4157 62.0919 72.4148 59.2361V58.5461C73.0553 58.7829 73.7319 58.9074 74.4148 58.9141H76.4148V61.0341C76.4187 62.1265 76.1698 63.205 75.6875 64.1851C75.2052 65.1653 74.5027 66.0206 73.6348 66.6841ZM68.4148 34.8841C50.0408 34.3321 46.2968 26.2301 46.2728 26.1721C46.1244 25.8006 45.868 25.4822 45.5368 25.258C45.2056 25.0337 44.8148 24.9139 44.4148 24.9141C38.5958 24.9232 32.9978 27.1438 28.7548 31.1261C30.5448 21.2001 39.1108 12.9141 48.4148 12.9141C53.7173 12.9199 58.801 15.0289 62.5505 18.7784C66.3 22.5278 68.409 27.6115 68.4148 32.9141V34.8841ZM82.4148 42.9141V50.9141C82.4148 51.9749 81.9934 52.9923 81.2432 53.7425C80.4931 54.4926 79.4757 54.9141 78.4148 54.9141H74.4148C73.8844 54.9141 73.3757 54.7034 73.0006 54.3283C72.6255 53.9532 72.4148 53.4445 72.4148 52.9141V40.9141C72.4148 40.3836 72.6255 39.8749 73.0006 39.4998C73.3757 39.1248 73.8844 38.9141 74.4148 38.9141H78.4148C79.4757 38.9141 80.4931 39.3355 81.2432 40.0856C81.9934 40.8358 82.4148 41.8532 82.4148 42.9141ZM48.4148 4.91406C55.8384 4.922 62.9557 7.87455 68.205 13.1238C73.4543 18.3731 76.4069 25.4904 76.4148 32.9141V34.9141H74.4148C73.7319 34.9207 73.0553 35.0452 72.4148 35.2821V32.9141C72.4079 26.551 69.8771 20.4505 65.3778 15.9511C60.8784 11.4517 54.7779 8.92094 48.4148 8.91406C35.6288 8.91406 24.4148 21.0641 24.4148 34.9141V35.2821C23.7743 35.0452 23.0977 34.9207 22.4148 34.9141H20.4148V32.9141C20.4227 25.4904 23.3753 18.3731 28.6246 13.1238C33.8739 7.87455 40.9912 4.922 48.4148 4.91406ZM22.4148 54.9141H18.4148C17.3539 54.9141 16.3365 54.4926 15.5864 53.7425C14.8362 52.9923 14.4148 51.9749 14.4148 50.9141V42.9141C14.4148 41.8532 14.8362 40.8358 15.5864 40.0856C16.3365 39.3355 17.3539 38.9141 18.4148 38.9141H22.4148C22.9452 38.9141 23.4539 39.1248 23.829 39.4998C24.2041 39.8749 24.4148 40.3836 24.4148 40.9141V52.9141C24.4148 53.4445 24.2041 53.9532 23.829 54.3283C23.4539 54.7034 22.9452 54.9141 22.4148 54.9141ZM28.4148 59.2361V37.5141C30.1008 35.0742 32.3085 33.04 34.8781 31.5591C37.4476 30.0782 40.3144 29.1877 43.2708 28.9521C45.1588 31.8101 51.3748 38.3821 68.4148 38.8701V59.2361C68.4151 61.1232 67.7299 62.9462 66.4868 64.3661L64.1468 67.0401L58.5468 65.5441L58.6068 65.2961C58.7291 64.785 58.7496 64.2547 58.6669 63.7357C58.5842 63.2167 58.4001 62.7191 58.125 62.2713C57.8499 61.8235 57.4893 61.4342 57.0637 61.1259C56.6382 60.8175 56.156 60.596 55.6448 60.4741L49.8108 59.0741C48.2625 58.7033 46.6303 58.9628 45.2732 59.7954C43.9162 60.6281 42.9456 61.9657 42.5748 63.5141C42.204 65.0624 42.4635 66.6946 43.2962 68.0516C44.1288 69.4086 45.4665 70.3793 47.0148 70.7501L52.8488 72.1501C53.1567 72.2239 53.4722 72.2615 53.7888 72.2621C54.6422 72.2625 55.473 71.9876 56.1577 71.4781C56.8423 70.9686 57.3442 70.2517 57.5888 69.4341L61.2068 70.4021L58.2148 73.8141C57.3634 74.7876 56.3137 75.5679 55.1361 76.1026C53.9585 76.6372 52.6801 76.9139 51.3868 76.9141H45.4428C44.1496 76.9133 42.8714 76.6363 41.6939 76.1017C40.5164 75.5671 39.4666 74.7871 38.6148 73.8141L30.3468 64.3641C29.1022 62.9456 28.4156 61.1231 28.4148 59.2361ZM54.7148 64.3661L53.7868 68.2541L47.9508 66.8541C47.6923 66.796 47.4479 66.6871 47.2318 66.5338C47.0157 66.3805 46.8323 66.1858 46.6921 65.961C46.5519 65.7361 46.4578 65.4857 46.4152 65.2242C46.3726 64.9627 46.3824 64.6953 46.444 64.4377C46.5056 64.18 46.6178 63.9371 46.774 63.7231C46.9303 63.5092 47.1275 63.3284 47.3542 63.1913C47.581 63.0542 47.8327 62.9635 48.0947 62.9245C48.3568 62.8855 48.624 62.8989 48.8808 62.9641L54.7148 64.3661ZM35.5988 76.4481C36.8262 77.8514 38.3397 78.976 40.0375 79.7463C41.7354 80.5165 43.5784 80.9147 45.4428 80.9141H51.3868C53.2512 80.9146 55.0941 80.5164 56.792 79.7461C58.4898 78.9758 60.0033 77.8513 61.2308 76.4481L61.3908 76.2661L64.1448 82.6961C60.3503 87.9294 54.7423 91.5616 48.4148 92.8841C42.0873 91.5616 36.4793 87.9294 32.6848 82.6961L35.4408 76.2661L35.5988 76.4481Z" fill="black"/>
</svg>
