<svg width="101" height="68" viewBox="0 0 101 68" fill="none" xmlns="http://www.w3.org/2000/svg">
<path d="M94.7433 0H6.74326C3.43525 0 0.743256 2.69199 0.743256 6V62C0.743256 65.308 3.43525 68 6.74326 68H94.7433C98.0513 68 100.743 65.308 100.743 62V6C100.743 2.69199 98.0513 0 94.7433 0ZM96.7433 62C96.7433 63.1 95.8433 64 94.7433 64H6.74326C5.63935 64 4.74326 63.1 4.74326 62V6C4.74326 4.8959 5.63935 4 6.74326 4H94.7433C95.8433 4 96.7433 4.8959 96.7433 6V62Z" fill="black"/>
<path d="M2.74326 18H98.7433V26H2.74326V18Z" fill="black"/>
<path d="M98.7433 16H2.74326C1.63935 16 0.743256 16.8959 0.743256 18V26C0.743256 27.1041 1.63935 28 2.74326 28H98.7433C99.8472 28 100.743 27.1041 100.743 26V18C100.743 16.8959 99.8472 16 98.7433 16ZM96.7433 24H4.74326V20H96.7433V24ZM54.7433 40H18.7433C17.6394 40 16.7433 40.8961 16.7433 42C16.7433 43.1039 17.6394 44 18.7433 44H54.7433C55.8472 44 56.7433 43.1039 56.7433 42C56.7433 40.8959 55.8472 40 54.7433 40ZM38.7433 48H18.7433C17.6394 48 16.7433 48.8961 16.7433 50C16.7433 51.1039 17.6394 52 18.7433 52H38.7433C39.8472 52 40.7433 51.1039 40.7433 50C40.7433 48.8961 39.8472 48 38.7433 48Z" fill="black"/>
</svg>
