<svg width="92" height="111" viewBox="0 0 92 111" fill="none" xmlns="http://www.w3.org/2000/svg">
<path d="M80.8333 9.41022H65.5744L63.2901 3.69939C62.8843 2.67702 62.18 1.80055 61.269 1.18414C60.358 0.567744 59.2824 0.239984 58.1825 0.243559H33.8156C31.5533 0.243559 29.5495 1.60022 28.708 3.70122L26.4236 9.41022H11.1648C5.09833 9.41022 0.164833 14.3437 0.164833 20.4102V25.9102C0.164833 27.9324 1.80933 29.5769 3.8315 29.5769H5.82433L12.5508 103.574C12.7083 105.399 13.5467 107.099 14.8996 108.334C16.2525 109.57 18.0207 110.252 19.853 110.243H72.1414C73.9737 110.252 75.742 109.57 77.0948 108.334C78.4477 107.099 79.2862 105.399 79.4436 103.574L86.1701 29.5769H88.1629C90.1851 29.5769 91.8296 27.9324 91.8296 25.9102V20.4102C91.8296 14.3437 86.8961 9.41022 80.8296 9.41022H80.8333ZM32.1143 5.06339C32.2495 4.72232 32.4843 4.42988 32.7881 4.22419C33.0919 4.0185 33.4506 3.90909 33.8175 3.91022H58.1843C58.9378 3.91022 59.607 4.36306 59.8875 5.06155L61.6273 9.41022H30.3763L32.1143 5.06339ZM75.7953 103.242C75.7166 104.155 75.2975 105.004 74.6212 105.622C73.945 106.24 73.0611 106.581 72.1451 106.577H19.8548C18.9388 106.581 18.0549 106.24 17.3787 105.622C16.7025 105.004 16.2834 104.155 16.2047 103.242L9.50749 29.5769H82.4906L75.7953 103.242ZM3.83333 25.9102V20.4102C3.83333 16.3659 7.12233 13.0769 11.1667 13.0769H80.8333C84.8776 13.0769 88.1666 16.3659 88.1666 20.4102L88.1703 25.9102H3.83333Z" fill="black"/>
<path d="M46 101.077C46.4862 101.077 46.9526 100.884 47.2964 100.54C47.6402 100.196 47.8333 99.7298 47.8333 99.2435V36.9102C47.8333 36.424 47.6402 35.9577 47.2964 35.6139C46.9526 35.2701 46.4862 35.0769 46 35.0769C45.5138 35.0769 45.0475 35.2701 44.7036 35.6139C44.3598 35.9577 44.1667 36.424 44.1667 36.9102V99.2435C44.1667 99.7298 44.3598 100.196 44.7036 100.54C45.0475 100.884 45.5138 101.077 46 101.077ZM29.4982 101.077C29.5349 101.077 29.5715 101.077 29.6082 101.073C29.8485 101.059 30.0837 100.998 30.3004 100.893C30.517 100.788 30.7108 100.641 30.8707 100.461C31.0306 100.281 31.1534 100.071 31.2322 99.844C31.3109 99.6165 31.3441 99.3757 31.3297 99.1354L27.663 36.8021C27.6488 36.5618 27.5874 36.3267 27.4824 36.1101C27.3773 35.8936 27.2306 35.6998 27.0506 35.54C26.8707 35.3801 26.661 35.2573 26.4336 35.1785C26.2062 35.0996 25.9655 35.0664 25.7252 35.0806C25.4849 35.0948 25.2498 35.1562 25.0332 35.2612C24.8167 35.3663 24.623 35.513 24.4631 35.693C24.3033 35.8729 24.1804 36.0826 24.1016 36.31C24.0228 36.5374 23.9895 36.7781 24.0037 37.0184L27.6704 99.3517C27.6979 99.818 27.9024 100.256 28.2421 100.577C28.5818 100.897 29.0311 101.076 29.4982 101.077ZM62.3918 101.073L62.5018 101.077C62.9689 101.076 63.4182 100.897 63.7579 100.577C64.0976 100.256 64.3021 99.818 64.3297 99.3517L67.9963 37.0184C68.0249 36.5332 67.8596 36.0565 67.5368 35.6931C67.214 35.3297 66.76 35.1094 66.2748 35.0806C65.7903 35.0549 65.3152 35.2213 64.9525 35.5435C64.5898 35.8657 64.3686 36.3179 64.337 36.8021L60.6703 99.1354C60.6418 99.6206 60.8071 100.097 61.1299 100.461C61.4527 100.824 61.9066 101.044 62.3918 101.073Z" fill="black"/>
</svg>
