<svg width="90" height="76" viewBox="0 0 90 76" fill="none" xmlns="http://www.w3.org/2000/svg">
<rect width="90" height="76" rx="10" fill="#020202"/>
<g clip-path="url(#clip0_339_1338)">
<rect x="11" y="5.5" width="68" height="60" rx="10" fill="#020202"/>
<path d="M27.6797 63.22C24.6397 63.22 22.0997 62.68 20.0597 61.6C18.0197 60.52 16.4797 58.86 15.4397 56.62C14.3997 54.34 13.8197 51.4 13.6997 47.8L22.8797 46.42C22.9197 48.5 23.0997 50.18 23.4197 51.46C23.7797 52.74 24.2597 53.66 24.8597 54.22C25.4997 54.78 26.2597 55.06 27.1397 55.06C28.2597 55.06 28.9797 54.68 29.2997 53.92C29.6597 53.16 29.8397 52.36 29.8397 51.52C29.8397 49.52 29.3597 47.84 28.3997 46.48C27.4397 45.08 26.1397 43.68 24.4997 42.28L20.2997 38.62C18.4597 37.06 16.8997 35.3 15.6197 33.34C14.3797 31.34 13.7597 28.88 13.7597 25.96C13.7597 21.84 14.9797 18.7 17.4197 16.54C19.8597 14.34 23.1797 13.24 27.3797 13.24C29.9797 13.24 32.0597 13.68 33.6197 14.56C35.2197 15.44 36.4197 16.6 37.2197 18.04C38.0597 19.44 38.6197 20.94 38.8997 22.54C39.2197 24.1 39.3997 25.6 39.4397 27.04L30.1997 28.18C30.1597 26.74 30.0597 25.5 29.8997 24.46C29.7797 23.38 29.4997 22.56 29.0597 22C28.6197 21.4 27.9397 21.1 27.0197 21.1C26.0197 21.1 25.2797 21.52 24.7997 22.36C24.3597 23.2 24.1397 24.04 24.1397 24.88C24.1397 26.68 24.5597 28.16 25.3997 29.32C26.2797 30.44 27.4197 31.62 28.8197 32.86L32.8397 36.4C34.9597 38.2 36.7397 40.24 38.1797 42.52C39.6597 44.8 40.3997 47.62 40.3997 50.98C40.3997 53.26 39.8797 55.34 38.8397 57.22C37.7997 59.06 36.3197 60.52 34.3997 61.6C32.5197 62.68 30.2797 63.22 27.6797 63.22Z" fill="#FF0000"/>
<path d="M45.9695 62.5V13.9H56.7095V33.58H64.2095V13.9H75.0095V62.5H64.2095V41.26H56.7095V62.5H45.9695Z" fill="#F4F4F4" fill-opacity="0.95"/>
</g>
<defs>
<clipPath id="clip0_339_1338">
<rect x="11" y="5.5" width="68" height="60" rx="10" fill="white"/>
</clipPath>
</defs>
</svg>
